<svg width="137" height="14" viewBox="0 0 137 14" fill="none" xmlns="http://www.w3.org/2000/svg">
<path d="M67.9756 13.1257H63.3094V0.591127H67.9756V13.1257ZM63.7669 12.6683H67.5181V1.04859H63.7669V12.6683ZM74.4716 13.1257H69.8969V0.591127H79.5038C80.8762 0.499633 82.2486 0.865607 83.3465 1.68905C83.7928 2.1459 84.1634 2.67094 84.4444 3.24444C84.7189 3.88489 84.8104 4.52535 84.7189 5.1658C84.8104 6.26372 84.4444 7.36165 83.7125 8.27658C82.889 9.28301 81.5166 9.74048 79.5953 9.74048H74.5631L74.4716 13.1257ZM70.3544 12.6683H74.0142V9.28301H74.2886H79.5953C81.3336 9.28301 82.706 8.82554 83.438 8.0021C84.0784 7.17866 84.3529 6.26372 84.3529 5.2573C84.4444 4.70833 84.3529 4.06788 84.1699 3.51892C83.9869 2.96996 83.621 2.51249 83.1635 2.05502C82.1571 1.32308 80.8762 0.957101 79.5953 1.04859H70.4459L70.3544 12.6683ZM78.4973 6.90418H74.0142V3.51892H78.5888C78.9548 3.51892 79.2293 3.51892 79.5038 3.61041C79.7782 3.70191 80.0527 3.88489 80.3272 4.15937C80.5102 4.43385 80.6017 4.79983 80.6017 5.2573C80.6017 5.62327 80.5102 5.89775 80.4187 6.26372C80.2357 6.5382 79.9612 6.72119 79.5953 6.81269C79.2293 6.90418 78.8633 6.99567 78.4973 6.90418ZM74.4716 6.44671H78.4973C79.2293 6.44671 79.6868 6.26372 79.9612 5.98924C80.0527 5.71476 80.1442 5.53178 80.1442 5.2573C80.1442 4.98282 80.1442 4.70833 79.9612 4.43385C79.7782 4.06788 79.3208 3.97639 78.5888 3.97639H74.4716V6.44671ZM93.0448 13.3087C88.9276 13.3087 86.4573 12.3023 85.5423 10.1979C85.3593 9.83197 85.2678 9.3745 85.2678 8.91704V8.64256H90.117V8.82554C90.117 9.00853 90.2085 9.19152 90.3915 9.3745C90.5745 9.64898 91.2149 10.015 93.4108 10.015C95.9726 10.015 95.9726 9.55749 95.9726 9.28301C95.9726 8.91704 95.6981 8.73405 93.5938 8.55106H93.2278L90.9405 8.36808C87.0977 8.0021 85.3593 6.81269 85.3593 4.52535C85.3593 2.05502 88.2871 0.499634 92.7703 0.499634C96.4301 0.499634 98.8089 1.50606 99.8153 3.42743C100.09 3.88489 100.181 4.34236 100.273 4.89132V5.1658H95.4236V4.98282C95.4236 4.79983 95.3321 4.70833 95.2406 4.52535C95.0577 4.25087 94.5087 3.88489 92.6788 3.88489C90.483 3.88489 90.2085 4.15937 90.2085 4.43385C90.2085 4.79983 90.9404 4.98282 93.1363 5.2573L96.0641 5.53178C99.2664 5.89775 100.73 7.08717 100.73 9.28301C100.639 11.0214 99.3578 13.3087 93.0448 13.3087ZM85.7253 9.10002C85.8168 9.3745 85.8168 9.74048 85.9998 10.015C86.8232 11.9363 89.2021 12.8513 93.0448 12.8513C96.3386 12.8513 100.181 12.2108 100.181 9.10002C100.181 7.08717 98.9004 6.08074 95.9726 5.80626C95.4236 5.71476 93.9597 5.62327 93.0448 5.53178C90.666 5.2573 89.6595 5.1658 89.6595 4.25087C89.6595 3.33593 90.666 3.24444 92.5873 3.24444C94.1427 3.24444 95.0577 3.51892 95.5151 4.06788C95.6066 4.15937 95.6981 4.34236 95.7896 4.52535H99.7238C99.6323 4.15937 99.5408 3.7934 99.3578 3.51892C98.4429 1.78054 96.2471 0.865607 92.6788 0.865607C88.4701 0.865607 85.7253 2.23801 85.7253 4.43385C85.7253 6.5382 87.2807 7.54463 90.849 7.81911C91.3064 7.81911 92.3128 7.91061 93.1363 8.0021H93.5023C95.4236 8.18509 96.3386 8.36808 96.3386 9.19152C96.3386 10.1979 95.2406 10.3809 93.3193 10.3809C91.5809 10.3809 90.3915 10.1065 90.0255 9.55749C89.934 9.3745 89.751 9.19152 89.751 9.00853H85.7253V9.10002ZM109.331 13.3087C104.573 13.3087 101.92 11.3874 101.92 7.91061V0.682621H106.586V7.91061C106.586 9.10002 107.684 9.83197 109.514 9.83197C111.343 9.83197 112.441 9.10002 112.441 7.91061V0.682621H117.016V8.18509C117.016 11.3874 114.18 13.3087 109.331 13.3087ZM102.377 1.04859V7.81911C102.377 12.1193 106.769 12.7598 109.331 12.7598C111.984 12.7598 116.559 12.1193 116.559 8.18509V1.04859H112.899V7.81911C112.899 9.19152 111.618 10.1979 109.514 10.1979C107.409 10.1979 106.128 9.28301 106.128 7.81911V1.04859H102.377ZM136.413 13.1257H132.021V7.45314L129.551 13.1257H125.708L123.238 7.45314V13.1257H118.846V0.591127H124.61L127.629 7.45314L130.74 0.591127H136.321L136.413 13.1257ZM132.479 12.6683H135.955V1.04859H131.106L127.629 8.64256L124.336 1.04859H119.303V12.6683H122.78V5.2573L125.982 12.6683H129.185L132.387 5.2573L132.479 12.6683ZM4.2961 0.774114H0.0874023V12.8513H11.6156V9.64898H4.2961V0.774114ZM20.033 0.499634C14.7264 0.499634 11.8901 3.06145 11.8901 6.72119C11.8901 10.9299 14.8179 13.0342 20.033 13.0342C25.7056 13.0342 28.1759 10.5639 28.1759 6.72119C28.0844 2.87846 25.4311 0.499634 20.033 0.499634ZM20.033 3.70191C20.399 3.70191 20.7649 3.70191 21.1309 3.7934L16.4647 8.45957C16.2818 8.0021 16.0988 7.45314 16.1903 6.90418C16.0988 4.89132 17.0137 3.70191 20.033 3.70191ZM20.033 10.015C19.667 10.015 19.301 10.015 19.0266 9.92346L23.6927 5.2573C23.8757 5.71476 23.9672 6.26372 23.9672 6.81269C23.9672 8.64256 23.0523 9.92346 20.033 10.015ZM36.4103 8.36808H40.7105C40.619 8.64256 40.5275 8.91704 40.3445 9.19152C39.4296 9.92346 38.3317 10.2894 37.1423 10.1979C36.5933 10.2894 35.9529 10.1979 35.4039 10.015C34.8549 9.83197 34.3975 9.55749 33.94 9.10002C33.4825 8.45957 33.2995 7.72762 33.391 6.90418C33.2995 6.08074 33.574 5.2573 34.0315 4.61684C34.6719 3.97639 35.6784 3.61041 37.1423 3.61041C38.0572 3.51892 39.0636 3.7934 39.7956 4.34236C40.0701 4.52535 40.253 4.79983 40.3445 5.07431H44.2788C44.2788 4.61684 44.0958 4.06788 43.9128 3.61041C42.9979 1.68905 40.7105 0.499634 36.9593 0.499634C33.6655 0.499634 31.4697 1.50606 30.2803 2.96996C29.4568 4.06788 29.0908 5.34879 29.0908 6.72119C28.9993 8.09359 29.4568 9.466 30.1888 10.5639C31.3782 12.1193 33.4825 12.8513 36.1358 12.8513C37.8742 12.9428 39.5211 12.4853 40.8935 11.4789L40.985 12.6683H44.2788V5.53178H36.2273V8.36808H36.4103ZM53.7941 0.499634C48.4875 0.499634 45.6512 3.06145 45.6512 6.72119C45.6512 10.9299 48.579 13.0342 53.7941 13.0342C59.4667 13.0342 61.937 10.5639 61.937 6.72119C61.8455 2.87846 59.1922 0.499634 53.7941 0.499634ZM53.7941 3.70191C54.1601 3.70191 54.526 3.70191 54.892 3.7934L50.2258 8.45957C50.0429 8.0021 49.9514 7.45314 49.9514 6.90418C49.8599 4.89132 50.7748 3.70191 53.7941 3.70191ZM53.7941 9.92346C53.4281 9.92346 53.0621 9.92346 52.6962 9.83197L57.3623 5.1658C57.5453 5.62327 57.7283 6.17223 57.6368 6.72119C57.7283 8.64256 56.8134 9.92346 53.7941 9.92346Z" fill="#B4B7C9"/>
</svg>
