<svg width="32769" height="32698" viewBox="0 0 32769 32698" fill="none" xmlns="http://www.w3.org/2000/svg">
<g opacity="0.04">
<rect x="32537.9" y="32624.7" width="230.4" height="72.8491" rx="8" fill="white"/>
</g>
<path d="M0.580205 5.68113V2.3897H2.68307V2.83999H1.05792V3.76342H2.40878V4.2137H1.05792V5.23085H2.68307V5.68113H0.580205ZM6.18972 5.68113L6.192 4.14284C6.192 3.96456 6.14629 3.82589 6.05486 3.72684C5.96343 3.62627 5.84305 3.57599 5.69372 3.57599C5.60229 3.57599 5.51848 3.59732 5.44229 3.63999C5.36762 3.68113 5.30667 3.74361 5.25943 3.82742C5.21371 3.9097 5.19086 4.01332 5.19086 4.13827L4.96 4.0217C4.95695 3.84799 4.99352 3.69561 5.06971 3.56456C5.14743 3.43351 5.25257 3.33218 5.38514 3.26056C5.51771 3.18741 5.66629 3.15084 5.83086 3.15084C6.09753 3.15084 6.304 3.23084 6.45029 3.39084C6.59657 3.55084 6.66972 3.76342 6.66972 4.02856L6.66743 5.68113H6.18972ZM3.22971 5.68113V3.21256H3.65485V3.9257H3.70971V5.68113H3.22971ZM4.71086 5.68113L4.71314 4.15199C4.71314 3.97218 4.66743 3.83123 4.576 3.72913C4.48609 3.62703 4.36495 3.57599 4.21257 3.57599C4.06171 3.57599 3.93981 3.6278 3.84685 3.73142C3.75543 3.83503 3.70971 3.97065 3.70971 4.13827L3.48114 3.99199C3.48114 3.83046 3.52 3.68646 3.59771 3.55999C3.67543 3.43351 3.78057 3.3337 3.91314 3.26056C4.04571 3.18741 4.19581 3.15084 4.36343 3.15084C4.53867 3.15084 4.688 3.18818 4.81143 3.26284C4.93486 3.33599 5.02857 3.43884 5.09257 3.57142C5.1581 3.70399 5.19086 3.85789 5.19086 4.03313L5.18857 5.68113H4.71086ZM7.9604 5.74971C7.77754 5.74971 7.6244 5.71618 7.50097 5.64913C7.37754 5.58056 7.28383 5.49066 7.21983 5.37942C7.15735 5.26666 7.12611 5.14323 7.12611 5.00913C7.12611 4.88418 7.14821 4.77447 7.1924 4.67999C7.23659 4.58551 7.30211 4.50551 7.38897 4.43999C7.47583 4.37294 7.58249 4.31885 7.70897 4.2777C7.81868 4.2457 7.94287 4.21751 8.08154 4.19313C8.22021 4.16875 8.36573 4.14589 8.51811 4.12456C8.67202 4.10323 8.8244 4.08189 8.97526 4.06056L8.80154 4.15656C8.80459 3.96303 8.76345 3.8198 8.67811 3.72684C8.5943 3.63237 8.44954 3.58513 8.24383 3.58513C8.1143 3.58513 7.99545 3.61561 7.88726 3.67656C7.77906 3.73599 7.70364 3.83503 7.66097 3.9737L7.21525 3.83656C7.27621 3.62475 7.39202 3.45637 7.56268 3.33141C7.73487 3.20646 7.96345 3.14399 8.2484 3.14399C8.46935 3.14399 8.66135 3.18208 8.8244 3.25827C8.98897 3.33294 9.10935 3.4518 9.18554 3.61484C9.22516 3.69561 9.24954 3.78094 9.25869 3.87084C9.26783 3.96075 9.2724 4.05751 9.2724 4.16113V5.68113H8.84954V5.11656L8.93183 5.1897C8.82973 5.37866 8.69945 5.51961 8.54097 5.61256C8.38402 5.70399 8.19049 5.74971 7.9604 5.74971ZM8.04497 5.35885C8.18059 5.35885 8.29716 5.33523 8.39468 5.28799C8.49221 5.23923 8.57069 5.17751 8.63011 5.10285C8.68954 5.02818 8.7284 4.95047 8.74669 4.8697C8.77259 4.79656 8.78707 4.71427 8.79011 4.62285C8.79469 4.53142 8.79697 4.45827 8.79697 4.40342L8.9524 4.46056C8.80154 4.48342 8.6644 4.50399 8.54097 4.52227C8.41754 4.54056 8.30554 4.55885 8.20497 4.57713C8.10592 4.59389 8.01754 4.61446 7.93983 4.63885C7.8743 4.6617 7.81564 4.68913 7.76383 4.72113C7.71354 4.75313 7.67316 4.79199 7.64268 4.8377C7.61373 4.88342 7.59925 4.93904 7.59925 5.00456C7.59925 5.06856 7.61525 5.12799 7.64725 5.18285C7.67925 5.23618 7.72802 5.27885 7.79354 5.31085C7.85906 5.34285 7.94287 5.35885 8.04497 5.35885ZM9.91165 2.80798V2.34398H10.3894V2.80798H9.91165ZM9.91165 5.68113V3.21256H10.3894V5.68113H9.91165ZM11.1215 5.68113V2.32113H11.5992V5.68113H11.1215Z" fill="#131022"/>
<path d="M13.4728 3.90056L13.2213 3.7177L13.5825 3.25141L13.0179 3.07999L13.1139 2.78513L13.6693 2.9817L13.6556 2.3897H13.9665L13.9528 2.9817L14.5059 2.78513L14.6019 3.07999L14.0396 3.25141L14.3962 3.7177L14.1448 3.90056L13.8111 3.41599L13.4728 3.90056Z" fill="#FF0000"/>
<path d="M32723.2 32653.2V32653H32723H32659.9C32658.3 32653 32657.1 32654.3 32657.1 32655.8V32667.1C32657.1 32668.7 32658.3 32669.9 32659.9 32669.9H32723H32723.2V32669.7V32653.2Z" fill="white"/>
<path d="M32723.2 32653.2V32653H32723H32659.9C32658.3 32653 32657.1 32654.3 32657.1 32655.8V32667.1C32657.1 32668.7 32658.3 32669.9 32659.9 32669.9H32723H32723.2V32669.7V32653.2Z" stroke="#D4D7E5"/>
<g clip-path="url(#clip0_20005129_1123)">
<path d="M32674.2 32663.4V32661.8L32672.9 32659.6H32673.4L32674.4 32661.3L32675.4 32659.6H32675.8L32674.6 32661.8V32663.4H32674.2ZM32676.9 32663.4C32676.7 32663.4 32676.4 32663.4 32676.2 32663.2C32676 32663.1 32675.9 32662.9 32675.8 32662.7C32675.7 32662.5 32675.6 32662.2 32675.6 32661.9C32675.6 32661.7 32675.7 32661.4 32675.8 32661.2C32675.9 32660.9 32676 32660.8 32676.2 32660.6C32676.4 32660.5 32676.7 32660.5 32676.9 32660.5C32677.2 32660.5 32677.5 32660.5 32677.7 32660.7C32677.9 32660.8 32678 32661 32678.1 32661.2C32678.2 32661.4 32678.3 32661.7 32678.3 32661.9C32678.3 32662.2 32678.2 32662.5 32678.1 32662.7C32678 32663 32677.9 32663.1 32677.7 32663.3C32677.5 32663.4 32677.2 32663.4 32676.9 32663.4ZM32676.9 32663.1C32677.3 32663.1 32677.5 32663 32677.6 32662.8C32677.8 32662.6 32677.9 32662.3 32677.9 32661.9C32677.9 32661.6 32677.8 32661.3 32677.6 32661.1C32677.5 32660.9 32677.3 32660.8 32676.9 32660.8C32676.7 32660.8 32676.6 32660.9 32676.4 32661C32676.3 32661.1 32676.2 32661.2 32676.1 32661.4C32676 32661.5 32676 32661.7 32676 32661.9C32676 32662.3 32676.1 32662.6 32676.2 32662.8C32676.4 32663 32676.6 32663.1 32676.9 32663.1ZM32679.9 32663.4C32679.8 32663.4 32679.6 32663.4 32679.5 32663.4C32679.4 32663.3 32679.3 32663.2 32679.2 32663.1C32679.1 32663.1 32679 32663 32679 32662.8C32678.9 32662.7 32678.9 32662.6 32678.8 32662.5C32678.8 32662.3 32678.8 32662.2 32678.8 32662.1V32660.5H32679.2V32662C32679.2 32662.1 32679.2 32662.3 32679.2 32662.4C32679.3 32662.5 32679.3 32662.7 32679.4 32662.8C32679.4 32662.9 32679.5 32662.9 32679.6 32663C32679.7 32663 32679.9 32663.1 32680 32663.1C32680.1 32663.1 32680.3 32663 32680.4 32663C32680.5 32662.9 32680.6 32662.9 32680.6 32662.8C32680.7 32662.7 32680.8 32662.6 32680.8 32662.5C32680.8 32662.3 32680.8 32662.2 32680.8 32662L32681.1 32662.1C32681.1 32662.4 32681.1 32662.6 32681 32662.8C32680.9 32663 32680.7 32663.2 32680.5 32663.3C32680.4 32663.4 32680.2 32663.4 32679.9 32663.4ZM32680.9 32663.4V32662.7H32680.8V32660.5H32681.2V32663.4H32680.9ZM32682 32663.4V32660.5H32682.3V32661.2L32682.2 32661.1C32682.3 32661 32682.3 32661 32682.4 32660.9C32682.4 32660.8 32682.5 32660.8 32682.5 32660.7C32682.6 32660.7 32682.7 32660.6 32682.8 32660.6C32682.9 32660.5 32683 32660.5 32683.1 32660.5C32683.2 32660.5 32683.3 32660.5 32683.3 32660.5V32660.9C32683.2 32660.9 32683.1 32660.9 32683 32660.9C32682.9 32660.9 32682.8 32660.9 32682.7 32661C32682.6 32661.1 32682.5 32661.2 32682.5 32661.3C32682.4 32661.4 32682.4 32661.5 32682.4 32661.6C32682.3 32661.7 32682.3 32661.8 32682.3 32662V32663.4H32682ZM32686.1 32663.4C32685.8 32663.4 32685.6 32663.4 32685.4 32663.3C32685.2 32663.1 32685 32663 32684.9 32662.7C32684.8 32662.5 32684.7 32662.3 32684.7 32662C32684.7 32661.7 32684.8 32661.4 32684.9 32661.2C32685 32660.9 32685.2 32660.8 32685.4 32660.6C32685.6 32660.5 32685.8 32660.5 32686.1 32660.5C32686.3 32660.5 32686.6 32660.5 32686.8 32660.7C32687 32660.8 32687.1 32661 32687.2 32661.2C32687.3 32661.4 32687.4 32661.7 32687.4 32662.1H32687V32661.9C32687 32661.6 32686.9 32661.3 32686.7 32661.1C32686.6 32660.9 32686.4 32660.8 32686.1 32660.8C32685.8 32660.8 32685.5 32660.9 32685.4 32661.1C32685.2 32661.3 32685.1 32661.6 32685.1 32662C32685.1 32662.3 32685.2 32662.6 32685.4 32662.8C32685.5 32663 32685.8 32663.1 32686.1 32663.1C32686.3 32663.1 32686.4 32663 32686.6 32662.9C32686.7 32662.8 32686.9 32662.7 32686.9 32662.5L32687.3 32662.7C32687.2 32662.9 32687 32663.1 32686.8 32663.2C32686.6 32663.4 32686.4 32663.4 32686.1 32663.4ZM32685 32662.1V32661.7H32687.2V32662.1H32685ZM32691.2 32663.4L32691.2 32661.5C32691.2 32661.3 32691.2 32661.1 32691 32661C32690.9 32660.9 32690.8 32660.8 32690.6 32660.8C32690.5 32660.8 32690.4 32660.8 32690.3 32660.9C32690.2 32660.9 32690.1 32661 32690 32661.1C32690 32661.2 32689.9 32661.4 32689.9 32661.5L32689.7 32661.5C32689.7 32661.3 32689.7 32661.1 32689.8 32660.9C32689.9 32660.8 32690 32660.7 32690.2 32660.6C32690.3 32660.5 32690.5 32660.5 32690.7 32660.5C32691 32660.5 32691.2 32660.6 32691.4 32660.7C32691.5 32660.9 32691.6 32661.1 32691.6 32661.4L32691.6 32663.4H32691.2ZM32687.9 32663.4V32660.5H32688.2V32661.2H32688.2V32663.4H32687.9ZM32689.5 32663.4L32689.6 32661.5C32689.6 32661.3 32689.5 32661.1 32689.4 32661C32689.3 32660.9 32689.1 32660.8 32688.9 32660.8C32688.7 32660.8 32688.5 32660.9 32688.4 32661C32688.3 32661.1 32688.2 32661.3 32688.2 32661.5L32688 32661.4C32688 32661.2 32688.1 32661.1 32688.1 32660.9C32688.2 32660.8 32688.3 32660.7 32688.5 32660.6C32688.6 32660.5 32688.8 32660.5 32689 32660.5C32689.2 32660.5 32689.3 32660.5 32689.5 32660.6C32689.6 32660.7 32689.7 32660.8 32689.8 32660.9C32689.9 32661.1 32689.9 32661.2 32689.9 32661.4L32689.9 32663.4H32689.5ZM32693.1 32663.4C32692.9 32663.4 32692.7 32663.4 32692.6 32663.3C32692.4 32663.2 32692.3 32663.1 32692.2 32663C32692.2 32662.9 32692.1 32662.8 32692.1 32662.6C32692.1 32662.5 32692.2 32662.3 32692.2 32662.2C32692.3 32662.1 32692.4 32662 32692.5 32661.9C32692.6 32661.9 32692.7 32661.8 32692.9 32661.8C32693 32661.7 32693.2 32661.7 32693.3 32661.7C32693.5 32661.7 32693.7 32661.6 32693.8 32661.6C32694 32661.6 32694.2 32661.6 32694.3 32661.6L32694.1 32661.6C32694.1 32661.4 32694.1 32661.2 32694 32661C32693.9 32660.9 32693.7 32660.8 32693.4 32660.8C32693.2 32660.8 32693 32660.9 32692.9 32661C32692.8 32661 32692.7 32661.2 32692.6 32661.4L32692.2 32661.3C32692.3 32661 32692.4 32660.8 32692.6 32660.7C32692.8 32660.5 32693.1 32660.5 32693.4 32660.5C32693.7 32660.5 32693.9 32660.5 32694 32660.6C32694.2 32660.7 32694.4 32660.8 32694.4 32661C32694.5 32661.1 32694.5 32661.2 32694.5 32661.3C32694.5 32661.4 32694.5 32661.5 32694.5 32661.6V32663.4H32694.2V32662.7L32694.3 32662.7C32694.2 32662.9 32694 32663.1 32693.8 32663.2C32693.6 32663.4 32693.4 32663.4 32693.1 32663.4ZM32693.1 32663.1C32693.3 32663.1 32693.5 32663.1 32693.6 32663C32693.7 32662.9 32693.9 32662.9 32693.9 32662.7C32694 32662.6 32694.1 32662.5 32694.1 32662.4C32694.1 32662.3 32694.1 32662.2 32694.1 32662.1C32694.1 32662 32694.1 32661.9 32694.1 32661.8L32694.3 32661.9C32694.2 32661.9 32694 32661.9 32693.9 32662C32693.7 32662 32693.6 32662 32693.4 32662C32693.3 32662 32693.1 32662.1 32693 32662.1C32692.9 32662.1 32692.9 32662.1 32692.8 32662.2C32692.7 32662.2 32692.6 32662.3 32692.6 32662.4C32692.5 32662.4 32692.5 32662.5 32692.5 32662.6C32692.5 32662.7 32692.5 32662.8 32692.6 32662.8C32692.6 32662.9 32692.7 32663 32692.8 32663C32692.9 32663.1 32693 32663.1 32693.1 32663.1ZM32695.2 32660V32659.6H32695.6V32660H32695.2ZM32695.2 32663.4V32660.5H32695.6V32663.4H32695.2ZM32696.5 32663.4V32659.5H32696.9V32663.4H32696.5Z" fill="#B4B7C9"/>
</g>
<path d="M32667.1 32659.4H32663.2C32663.1 32659.4 32663 32659.5 32662.9 32659.6C32662.8 32659.6 32662.7 32659.8 32662.7 32659.9V32662.8C32662.7 32662.9 32662.8 32663 32662.9 32663.1C32663 32663.2 32663.1 32663.2 32663.2 32663.2H32667.1C32667.2 32663.2 32667.3 32663.2 32667.4 32663.1C32667.5 32663 32667.5 32662.9 32667.5 32662.8V32659.9C32667.5 32659.8 32667.5 32659.6 32667.4 32659.6C32667.3 32659.5 32667.2 32659.4 32667.1 32659.4ZM32667.1 32659.9V32660L32665.1 32661.5L32663.2 32660V32659.9H32667.1ZM32663.2 32662.8V32660.6L32665 32662C32665 32662 32665 32662 32665.1 32662C32665.1 32662 32665.1 32662 32665.1 32662C32665.2 32662 32665.2 32662 32665.2 32662C32665.2 32662 32665.3 32662 32665.3 32662L32667.1 32660.6V32662.8H32663.2Z" fill="#9397AD"/>
<path d="M32584.1 32658.7C32583.8 32658.7 32583.4 32658.6 32583.1 32658.5C32582.8 32658.3 32582.5 32658.1 32582.3 32657.9C32582.1 32657.6 32582 32657.3 32581.9 32656.9L32583 32656.8C32583 32657.1 32583.2 32657.3 32583.4 32657.5C32583.7 32657.7 32583.9 32657.7 32584.2 32657.7C32584.4 32657.7 32584.5 32657.7 32584.7 32657.7C32584.9 32657.6 32585 32657.5 32585.1 32657.4C32585.2 32657.3 32585.2 32657.2 32585.2 32657.1C32585.2 32657 32585.2 32657 32585.2 32656.9C32585.2 32656.9 32585.2 32656.8 32585.1 32656.8C32585.1 32656.7 32585 32656.7 32585 32656.6C32584.9 32656.6 32584.8 32656.6 32584.7 32656.5L32583.3 32656.1C32583.2 32656.1 32583.1 32656 32583 32656C32582.8 32655.9 32582.7 32655.9 32582.6 32655.8C32582.4 32655.7 32582.3 32655.5 32582.2 32655.4C32582.2 32655.2 32582.1 32655 32582.1 32654.7C32582.1 32654.4 32582.2 32654.1 32582.4 32653.8C32582.6 32653.6 32582.8 32653.4 32583.1 32653.3C32583.4 32653.2 32583.7 32653.1 32584.1 32653.1C32584.5 32653.1 32584.8 32653.2 32585.1 32653.3C32585.4 32653.4 32585.6 32653.6 32585.8 32653.8C32586 32654.1 32586.2 32654.4 32586.2 32654.7L32585.2 32654.9C32585.1 32654.7 32585 32654.6 32584.9 32654.4C32584.8 32654.3 32584.7 32654.2 32584.6 32654.2C32584.4 32654.1 32584.3 32654.1 32584.1 32654.1C32583.9 32654.1 32583.8 32654.1 32583.6 32654.1C32583.5 32654.2 32583.4 32654.3 32583.3 32654.3C32583.2 32654.4 32583.2 32654.5 32583.2 32654.7C32583.2 32654.8 32583.2 32654.9 32583.3 32655C32583.4 32655 32583.4 32655.1 32583.6 32655.1C32583.7 32655.2 32583.8 32655.2 32583.9 32655.2L32584.8 32655.5C32585 32655.5 32585.1 32655.6 32585.3 32655.6C32585.4 32655.7 32585.6 32655.8 32585.8 32655.9C32585.9 32656 32586 32656.1 32586.1 32656.3C32586.2 32656.5 32586.3 32656.7 32586.3 32657C32586.3 32657.3 32586.2 32657.5 32586.1 32657.7C32586 32657.9 32585.8 32658.1 32585.6 32658.3C32585.4 32658.4 32585.2 32658.5 32584.9 32658.6C32584.7 32658.6 32584.4 32658.7 32584.1 32658.7ZM32588.6 32658.7C32588.3 32658.7 32588 32658.6 32587.8 32658.5C32587.6 32658.4 32587.5 32658.3 32587.4 32658.1C32587.3 32658 32587.2 32657.8 32587.1 32657.6C32587.1 32657.4 32587.1 32657.3 32587 32657.1C32587 32657 32587 32656.9 32587 32656.8V32654.6H32588.1V32656.5C32588.1 32656.6 32588.1 32656.7 32588.1 32656.8C32588.1 32657 32588.1 32657.1 32588.2 32657.2C32588.2 32657.4 32588.3 32657.5 32588.4 32657.6C32588.5 32657.7 32588.7 32657.7 32588.9 32657.7C32589 32657.7 32589.1 32657.7 32589.2 32657.7C32589.3 32657.7 32589.4 32657.6 32589.5 32657.5C32589.6 32657.5 32589.6 32657.4 32589.7 32657.2C32589.7 32657 32589.8 32656.8 32589.8 32656.6L32590.3 32656.9C32590.3 32657.2 32590.3 32657.5 32590.2 32657.8C32590 32658 32589.8 32658.3 32589.6 32658.4C32589.3 32658.6 32589 32658.7 32588.6 32658.7ZM32589.9 32658.6V32657.2H32589.8V32654.6H32590.8V32658.6H32589.9ZM32593.8 32658.7C32593.4 32658.7 32593.1 32658.6 32592.8 32658.4C32592.5 32658.2 32592.3 32658 32592.2 32657.6C32592 32657.3 32592 32657 32592 32656.6C32592 32656.2 32592 32655.8 32592.2 32655.5C32592.3 32655.2 32592.5 32654.9 32592.8 32654.7C32593 32654.6 32593.4 32654.5 32593.7 32654.5C32594.1 32654.5 32594.4 32654.5 32594.7 32654.7C32595 32654.9 32595.2 32655.2 32595.4 32655.5C32595.5 32655.8 32595.6 32656.2 32595.6 32656.6C32595.6 32657 32595.6 32657.3 32595.4 32657.6C32595.2 32658 32595 32658.2 32594.7 32658.4C32594.5 32658.6 32594.2 32658.7 32593.8 32658.7ZM32591.8 32658.6V32653.2H32592.8V32655.8H32592.7V32658.6H32591.8ZM32593.6 32657.8C32593.8 32657.8 32594 32657.7 32594.2 32657.6C32594.3 32657.5 32594.4 32657.4 32594.5 32657.2C32594.5 32657 32594.6 32656.8 32594.6 32656.6C32594.6 32656.3 32594.5 32656.1 32594.5 32656C32594.4 32655.8 32594.3 32655.6 32594.1 32655.5C32594 32655.4 32593.8 32655.4 32593.6 32655.4C32593.4 32655.4 32593.2 32655.4 32593.1 32655.5C32592.9 32655.6 32592.8 32655.7 32592.8 32655.9C32592.7 32656.1 32592.7 32656.3 32592.7 32656.6C32592.7 32656.8 32592.7 32657 32592.8 32657.2C32592.8 32657.4 32592.9 32657.5 32593.1 32657.6C32593.2 32657.7 32593.4 32657.8 32593.6 32657.8ZM32597.9 32658.7C32597.4 32658.7 32597 32658.6 32596.7 32658.3C32596.4 32658.1 32596.2 32657.8 32596.1 32657.4L32597.1 32657.2C32597.2 32657.4 32597.3 32657.5 32597.4 32657.7C32597.6 32657.8 32597.8 32657.8 32598 32657.8C32598.2 32657.8 32598.3 32657.8 32598.4 32657.7C32598.5 32657.6 32598.5 32657.5 32598.5 32657.4C32598.5 32657.3 32598.5 32657.3 32598.5 32657.2C32598.4 32657.2 32598.4 32657.1 32598.2 32657.1C32598.1 32657 32597.9 32657 32597.6 32656.9C32597.3 32656.8 32597 32656.7 32596.8 32656.6C32596.6 32656.5 32596.5 32656.4 32596.4 32656.2C32596.3 32656.1 32596.2 32655.9 32596.2 32655.7C32596.2 32655.5 32596.3 32655.2 32596.4 32655.1C32596.6 32654.9 32596.8 32654.7 32597 32654.6C32597.2 32654.5 32597.5 32654.5 32597.8 32654.5C32598.2 32654.5 32598.4 32654.5 32598.7 32654.6C32598.9 32654.7 32599.1 32654.8 32599.3 32655C32599.4 32655.2 32599.5 32655.4 32599.5 32655.6L32598.5 32655.8C32598.5 32655.7 32598.4 32655.6 32598.3 32655.5C32598.2 32655.4 32598.1 32655.3 32597.9 32655.3C32597.7 32655.3 32597.5 32655.3 32597.4 32655.4C32597.3 32655.5 32597.2 32655.5 32597.2 32655.7C32597.2 32655.7 32597.3 32655.8 32597.3 32655.8C32597.4 32655.9 32597.5 32655.9 32597.6 32656C32597.8 32656 32598 32656.1 32598.3 32656.2C32598.6 32656.3 32598.9 32656.3 32599 32656.5C32599.2 32656.6 32599.4 32656.7 32599.4 32656.8C32599.5 32657 32599.6 32657.2 32599.6 32657.4C32599.6 32657.8 32599.4 32658.1 32599.1 32658.3C32598.8 32658.6 32598.4 32658.7 32597.9 32658.7ZM32602.2 32658.7C32601.7 32658.7 32601.4 32658.6 32601.1 32658.4C32600.8 32658.2 32600.6 32658 32600.4 32657.6C32600.2 32657.3 32600.2 32657 32600.2 32656.6C32600.2 32656.2 32600.2 32655.8 32600.4 32655.5C32600.6 32655.2 32600.8 32654.9 32601.1 32654.7C32601.4 32654.5 32601.8 32654.5 32602.2 32654.5C32602.6 32654.5 32603 32654.6 32603.4 32654.8C32603.7 32655.1 32603.9 32655.4 32604 32655.8L32603 32656.1C32602.9 32655.9 32602.8 32655.7 32602.6 32655.6C32602.5 32655.5 32602.3 32655.4 32602.2 32655.4C32601.9 32655.4 32601.8 32655.5 32601.6 32655.6C32601.5 32655.7 32601.4 32655.8 32601.3 32656C32601.3 32656.1 32601.2 32656.3 32601.2 32656.6C32601.2 32656.9 32601.3 32657.2 32601.5 32657.4C32601.6 32657.6 32601.8 32657.7 32602.2 32657.7C32602.4 32657.7 32602.6 32657.7 32602.7 32657.6C32602.8 32657.5 32602.9 32657.3 32602.9 32657.1L32604 32657.4C32603.9 32657.8 32603.6 32658.1 32603.3 32658.3C32603 32658.6 32602.6 32658.7 32602.2 32658.7ZM32604.7 32658.6V32654.6H32605.6V32655.5L32605.5 32655.4C32605.6 32655.3 32605.6 32655.2 32605.7 32655C32605.8 32654.9 32605.9 32654.8 32606 32654.8C32606.1 32654.7 32606.2 32654.7 32606.3 32654.6C32606.5 32654.6 32606.6 32654.6 32606.7 32654.6C32606.8 32654.6 32606.9 32654.6 32607.1 32654.6V32655.5C32606.9 32655.5 32606.8 32655.5 32606.7 32655.5C32606.5 32655.5 32606.4 32655.5 32606.3 32655.6C32606.2 32655.6 32606.1 32655.7 32606 32655.8C32605.9 32655.9 32605.8 32656 32605.8 32656.1C32605.7 32656.2 32605.7 32656.4 32605.7 32656.5V32658.6H32604.7ZM32607.8 32654V32653.1H32608.8V32654H32607.8ZM32607.8 32658.6V32654.6H32608.8V32658.6H32607.8ZM32611.9 32658.7C32611.5 32658.7 32611.2 32658.6 32610.9 32658.4C32610.7 32658.2 32610.5 32658 32610.3 32657.6C32610.2 32657.3 32610.1 32657 32610.1 32656.6C32610.1 32656.2 32610.2 32655.8 32610.3 32655.5C32610.5 32655.2 32610.7 32654.9 32610.9 32654.7C32611.2 32654.6 32611.5 32654.5 32611.9 32654.5C32612.3 32654.5 32612.6 32654.5 32612.9 32654.7C32613.2 32654.9 32613.4 32655.2 32613.5 32655.5C32613.7 32655.8 32613.8 32656.2 32613.8 32656.6C32613.8 32657 32613.7 32657.3 32613.5 32657.6C32613.4 32658 32613.2 32658.2 32612.9 32658.4C32612.6 32658.6 32612.3 32658.7 32611.9 32658.7ZM32610 32658.6V32653.2H32611V32655.8H32610.8V32658.6H32610ZM32611.8 32657.8C32612 32657.8 32612.2 32657.7 32612.3 32657.6C32612.4 32657.5 32612.5 32657.4 32612.6 32657.2C32612.7 32657 32612.7 32656.8 32612.7 32656.6C32612.7 32656.3 32612.7 32656.1 32612.6 32656C32612.5 32655.8 32612.4 32655.6 32612.3 32655.5C32612.1 32655.4 32611.9 32655.4 32611.7 32655.4C32611.5 32655.4 32611.3 32655.4 32611.2 32655.5C32611.1 32655.6 32611 32655.7 32610.9 32655.9C32610.9 32656.1 32610.8 32656.3 32610.8 32656.6C32610.8 32656.8 32610.9 32657 32610.9 32657.2C32611 32657.4 32611.1 32657.5 32611.2 32657.6C32611.4 32657.7 32611.5 32657.8 32611.8 32657.8ZM32616.4 32658.7C32616 32658.7 32615.7 32658.6 32615.4 32658.4C32615 32658.2 32614.8 32658 32614.6 32657.7C32614.4 32657.4 32614.4 32657 32614.4 32656.6C32614.4 32656.2 32614.4 32655.8 32614.6 32655.5C32614.8 32655.2 32615 32654.9 32615.3 32654.7C32615.6 32654.5 32616 32654.5 32616.4 32654.5C32616.8 32654.5 32617.2 32654.6 32617.5 32654.8C32617.7 32655 32618 32655.2 32618.1 32655.6C32618.2 32655.9 32618.3 32656.4 32618.3 32656.9H32617.3V32656.5C32617.3 32656.1 32617.2 32655.8 32617.1 32655.6C32616.9 32655.4 32616.7 32655.3 32616.4 32655.3C32616.1 32655.3 32615.8 32655.4 32615.7 32655.6C32615.5 32655.9 32615.4 32656.2 32615.4 32656.6C32615.4 32656.9 32615.5 32657.2 32615.7 32657.4C32615.8 32657.6 32616.1 32657.7 32616.4 32657.7C32616.6 32657.7 32616.8 32657.7 32616.9 32657.6C32617 32657.5 32617.1 32657.4 32617.2 32657.2L32618.2 32657.5C32618.1 32657.9 32617.8 32658.2 32617.5 32658.4C32617.2 32658.6 32616.8 32658.7 32616.4 32658.7ZM32615.1 32656.9V32656.1H32617.8V32656.9H32615.1ZM32623 32658.6C32622.7 32658.6 32622.4 32658.6 32622.2 32658.6C32621.9 32658.6 32621.7 32658.6 32621.5 32658.5C32621.2 32658.4 32621.1 32658.3 32621 32658.1C32620.9 32657.9 32620.8 32657.7 32620.8 32657.5C32620.8 32657.3 32620.8 32657.1 32620.8 32656.9V32653.5H32621.8V32656.8C32621.8 32657 32621.8 32657.1 32621.8 32657.2C32621.8 32657.4 32621.9 32657.5 32621.9 32657.5C32622 32657.7 32622.1 32657.8 32622.3 32657.8C32622.5 32657.8 32622.7 32657.8 32623 32657.7V32658.6ZM32620.1 32655.3V32654.6H32623V32655.3H32620.1ZM32625.5 32658.7C32625.1 32658.7 32624.7 32658.6 32624.4 32658.4C32624.1 32658.2 32623.9 32658 32623.7 32657.7C32623.5 32657.3 32623.4 32657 32623.4 32656.6C32623.4 32656.2 32623.5 32655.8 32623.7 32655.5C32623.9 32655.2 32624.1 32654.9 32624.4 32654.7C32624.7 32654.5 32625.1 32654.5 32625.5 32654.5C32625.9 32654.5 32626.2 32654.5 32626.5 32654.7C32626.8 32654.9 32627.1 32655.2 32627.2 32655.5C32627.4 32655.8 32627.5 32656.2 32627.5 32656.6C32627.5 32657 32627.4 32657.4 32627.2 32657.7C32627.1 32658 32626.8 32658.2 32626.5 32658.4C32626.2 32658.6 32625.9 32658.7 32625.5 32658.7ZM32625.5 32657.7C32625.8 32657.7 32626 32657.6 32626.2 32657.4C32626.3 32657.2 32626.4 32656.9 32626.4 32656.6C32626.4 32656.2 32626.3 32655.9 32626.2 32655.7C32626 32655.5 32625.8 32655.4 32625.5 32655.4C32625.2 32655.4 32625.1 32655.4 32624.9 32655.5C32624.8 32655.6 32624.7 32655.8 32624.6 32656C32624.5 32656.1 32624.5 32656.3 32624.5 32656.6C32624.5 32656.9 32624.6 32657.2 32624.7 32657.4C32624.9 32657.6 32625.1 32657.7 32625.5 32657.7ZM32631.6 32658.7C32631.2 32658.7 32630.8 32658.6 32630.5 32658.4C32630.2 32658.2 32630 32658 32629.8 32657.7C32629.6 32657.3 32629.6 32657 32629.6 32656.6C32629.6 32656.2 32629.6 32655.8 32629.8 32655.5C32630 32655.2 32630.2 32654.9 32630.5 32654.7C32630.8 32654.5 32631.2 32654.5 32631.6 32654.5C32632 32654.5 32632.3 32654.5 32632.6 32654.7C32633 32654.9 32633.2 32655.2 32633.4 32655.5C32633.5 32655.8 32633.6 32656.2 32633.6 32656.6C32633.6 32657 32633.5 32657.4 32633.4 32657.7C32633.2 32658 32632.9 32658.2 32632.6 32658.4C32632.3 32658.6 32632 32658.7 32631.6 32658.7ZM32631.6 32657.7C32631.9 32657.7 32632.2 32657.6 32632.3 32657.4C32632.5 32657.2 32632.5 32656.9 32632.5 32656.6C32632.5 32656.2 32632.5 32655.9 32632.3 32655.7C32632.1 32655.5 32631.9 32655.4 32631.6 32655.4C32631.4 32655.4 32631.2 32655.4 32631 32655.5C32630.9 32655.6 32630.8 32655.8 32630.7 32656C32630.7 32656.1 32630.6 32656.3 32630.6 32656.6C32630.6 32656.9 32630.7 32657.2 32630.9 32657.4C32631 32657.6 32631.3 32657.7 32631.6 32657.7ZM32635.9 32658.7C32635.6 32658.7 32635.4 32658.6 32635.2 32658.5C32635 32658.4 32634.8 32658.3 32634.7 32658.1C32634.6 32658 32634.5 32657.8 32634.5 32657.6C32634.4 32657.4 32634.4 32657.3 32634.4 32657.1C32634.4 32657 32634.4 32656.9 32634.4 32656.8V32654.6H32635.4V32656.5C32635.4 32656.6 32635.4 32656.7 32635.4 32656.8C32635.4 32657 32635.4 32657.1 32635.5 32657.2C32635.5 32657.4 32635.6 32657.5 32635.7 32657.6C32635.9 32657.7 32636 32657.7 32636.2 32657.7C32636.3 32657.7 32636.4 32657.7 32636.5 32657.7C32636.6 32657.7 32636.7 32657.6 32636.8 32657.5C32636.9 32657.5 32637 32657.4 32637 32657.2C32637.1 32657 32637.1 32656.8 32637.1 32656.6L32637.7 32656.9C32637.7 32657.2 32637.6 32657.5 32637.5 32657.8C32637.3 32658 32637.2 32658.3 32636.9 32658.4C32636.6 32658.6 32636.3 32658.7 32635.9 32658.7ZM32637.2 32658.6V32657.2H32637.1V32654.6H32638.1V32658.6H32637.2ZM32639.1 32658.6V32654.6H32640V32655.5L32639.9 32655.4C32640 32655.3 32640.1 32655.2 32640.1 32655C32640.2 32654.9 32640.3 32654.8 32640.5 32654.8C32640.6 32654.7 32640.7 32654.7 32640.8 32654.6C32640.9 32654.6 32641 32654.6 32641.1 32654.6C32641.3 32654.6 32641.4 32654.6 32641.5 32654.6V32655.5C32641.4 32655.5 32641.3 32655.5 32641.1 32655.5C32641 32655.5 32640.8 32655.5 32640.7 32655.6C32640.6 32655.6 32640.5 32655.7 32640.4 32655.8C32640.3 32655.9 32640.3 32656 32640.2 32656.1C32640.2 32656.2 32640.2 32656.4 32640.2 32656.5V32658.6H32639.1ZM32584.9 32669V32667.1C32584.9 32667 32584.9 32666.9 32584.8 32666.8C32584.8 32666.6 32584.8 32666.5 32584.8 32666.4C32584.7 32666.2 32584.6 32666.1 32584.5 32666C32584.4 32665.9 32584.2 32665.8 32584 32665.8C32583.9 32665.8 32583.8 32665.9 32583.7 32665.9C32583.6 32665.9 32583.5 32666 32583.4 32666C32583.4 32666.1 32583.3 32666.2 32583.2 32666.4C32583.2 32666.5 32583.1 32666.7 32583.1 32667L32582.6 32666.7C32582.6 32666.4 32582.6 32666.1 32582.8 32665.8C32582.9 32665.5 32583.1 32665.3 32583.3 32665.2C32583.6 32665 32583.9 32664.9 32584.3 32664.9C32584.6 32664.9 32584.9 32665 32585.1 32665.1C32585.3 32665.2 32585.4 32665.3 32585.5 32665.5C32585.7 32665.6 32585.7 32665.8 32585.8 32666C32585.8 32666.1 32585.9 32666.3 32585.9 32666.5C32585.9 32666.6 32585.9 32666.7 32585.9 32666.8V32669H32584.9ZM32582.1 32669V32665H32583V32666.3H32583.1V32669H32582.1ZM32588.6 32669.1C32588.2 32669.1 32587.9 32669 32587.5 32668.9C32587.2 32668.7 32587 32668.4 32586.8 32668.1C32586.6 32667.8 32586.6 32667.5 32586.6 32667.1C32586.6 32666.6 32586.6 32666.3 32586.8 32665.9C32587 32665.6 32587.2 32665.4 32587.5 32665.2C32587.8 32665 32588.2 32664.9 32588.6 32664.9C32589 32664.9 32589.4 32665 32589.6 32665.2C32589.9 32665.4 32590.2 32665.7 32590.3 32666C32590.4 32666.4 32590.5 32666.8 32590.4 32667.3H32589.4V32666.9C32589.4 32666.5 32589.4 32666.2 32589.3 32666.1C32589.1 32665.9 32588.9 32665.8 32588.6 32665.8C32588.3 32665.8 32588 32665.9 32587.9 32666.1C32587.7 32666.3 32587.6 32666.6 32587.6 32667C32587.6 32667.4 32587.7 32667.7 32587.9 32667.9C32588 32668.1 32588.3 32668.2 32588.6 32668.2C32588.8 32668.2 32588.9 32668.1 32589.1 32668.1C32589.2 32668 32589.3 32667.8 32589.4 32667.7L32590.4 32668C32590.3 32668.3 32590 32668.6 32589.7 32668.8C32589.4 32669 32589 32669.1 32588.6 32669.1ZM32587.3 32667.3V32666.6H32590V32667.3H32587.3ZM32592 32669L32590.8 32665L32591.8 32665L32592.5 32667.4L32593.2 32665H32594.1L32594.8 32667.4L32595.5 32665H32596.5L32595.3 32669H32594.5L32593.6 32666.4L32592.8 32669H32592ZM32598.6 32669.1C32598.1 32669.1 32597.7 32669 32597.4 32668.8C32597.1 32668.6 32596.9 32668.2 32596.8 32667.8L32597.8 32667.7C32597.9 32667.9 32598 32668 32598.1 32668.1C32598.3 32668.2 32598.4 32668.3 32598.7 32668.3C32598.9 32668.3 32599 32668.2 32599.1 32668.2C32599.2 32668.1 32599.2 32668 32599.2 32667.9C32599.2 32667.8 32599.2 32667.7 32599.2 32667.7C32599.1 32667.6 32599.1 32667.6 32598.9 32667.5C32598.8 32667.5 32598.6 32667.4 32598.3 32667.3C32597.9 32667.3 32597.7 32667.2 32597.5 32667.1C32597.3 32667 32597.2 32666.8 32597.1 32666.7C32597 32666.5 32596.9 32666.4 32596.9 32666.2C32596.9 32665.9 32597 32665.7 32597.1 32665.5C32597.3 32665.3 32597.5 32665.2 32597.7 32665.1C32597.9 32665 32598.2 32664.9 32598.5 32664.9C32598.8 32664.9 32599.1 32665 32599.4 32665.1C32599.6 32665.1 32599.8 32665.3 32600 32665.5C32600.1 32665.6 32600.2 32665.9 32600.2 32666.1L32599.2 32666.3C32599.2 32666.1 32599.1 32666 32599 32665.9C32598.9 32665.8 32598.7 32665.8 32598.6 32665.8C32598.4 32665.8 32598.2 32665.8 32598.1 32665.8C32598 32665.9 32597.9 32666 32597.9 32666.1C32597.9 32666.2 32598 32666.2 32598 32666.3C32598.1 32666.3 32598.2 32666.4 32598.3 32666.4C32598.5 32666.5 32598.7 32666.5 32599 32666.6C32599.3 32666.7 32599.6 32666.8 32599.7 32666.9C32599.9 32667 32600.1 32667.1 32600.1 32667.3C32600.2 32667.4 32600.3 32667.6 32600.3 32667.8C32600.3 32668.2 32600.1 32668.5 32599.8 32668.8C32599.5 32669 32599.1 32669.1 32598.6 32669.1ZM32601.2 32669V32663.6H32602.2V32669H32601.2ZM32605.1 32669.1C32604.7 32669.1 32604.4 32669 32604.1 32668.9C32603.7 32668.7 32603.5 32668.4 32603.3 32668.1C32603.1 32667.8 32603.1 32667.5 32603.1 32667.1C32603.1 32666.6 32603.1 32666.3 32603.3 32665.9C32603.5 32665.6 32603.7 32665.4 32604 32665.2C32604.3 32665 32604.7 32664.9 32605.1 32664.9C32605.5 32664.9 32605.9 32665 32606.1 32665.2C32606.4 32665.4 32606.7 32665.7 32606.8 32666C32606.9 32666.4 32607 32666.8 32606.9 32667.3H32606V32666.9C32606 32666.5 32605.9 32666.2 32605.8 32666.1C32605.6 32665.9 32605.4 32665.8 32605.1 32665.8C32604.8 32665.8 32604.5 32665.9 32604.4 32666.1C32604.2 32666.3 32604.1 32666.6 32604.1 32667C32604.1 32667.4 32604.2 32667.7 32604.4 32667.9C32604.5 32668.1 32604.8 32668.2 32605.1 32668.2C32605.3 32668.2 32605.4 32668.1 32605.6 32668.1C32605.7 32668 32605.8 32667.8 32605.9 32667.7L32606.9 32668C32606.8 32668.3 32606.5 32668.6 32606.2 32668.8C32605.9 32669 32605.5 32669.1 32605.1 32669.1ZM32603.8 32667.3V32666.6H32606.5V32667.3H32603.8ZM32610.2 32669C32609.9 32669.1 32609.6 32669.1 32609.4 32669.1C32609.1 32669.1 32608.9 32669 32608.7 32668.9C32608.5 32668.9 32608.3 32668.7 32608.2 32668.5C32608.1 32668.3 32608 32668.2 32608 32668C32608 32667.8 32608 32667.6 32608 32667.3V32663.9H32609V32667.3C32609 32667.4 32609 32667.6 32609 32667.7C32609 32667.8 32609.1 32667.9 32609.1 32668C32609.2 32668.1 32609.3 32668.2 32609.5 32668.2C32609.7 32668.2 32610 32668.2 32610.2 32668.2V32669ZM32607.3 32665.8V32665H32610.2V32665.8H32607.3ZM32613 32669C32612.8 32669.1 32612.5 32669.1 32612.2 32669.1C32612 32669.1 32611.7 32669 32611.5 32668.9C32611.3 32668.9 32611.1 32668.7 32611 32668.5C32610.9 32668.3 32610.9 32668.2 32610.9 32668C32610.9 32667.8 32610.9 32667.6 32610.9 32667.3V32663.9H32611.9V32667.3C32611.9 32667.4 32611.9 32667.6 32611.9 32667.7C32611.9 32667.8 32611.9 32667.9 32612 32668C32612 32668.1 32612.2 32668.2 32612.4 32668.2C32612.6 32668.2 32612.8 32668.2 32613 32668.2V32669ZM32610.2 32665.8V32665H32613V32665.8H32610.2ZM32615.8 32669.1C32615.4 32669.1 32615 32669 32614.7 32668.9C32614.4 32668.7 32614.1 32668.4 32614 32668.1C32613.8 32667.8 32613.7 32667.5 32613.7 32667.1C32613.7 32666.6 32613.8 32666.3 32614 32665.9C32614.1 32665.6 32614.4 32665.4 32614.7 32665.2C32615 32665 32615.3 32664.9 32615.7 32664.9C32616.1 32664.9 32616.5 32665 32616.8 32665.2C32617.1 32665.4 32617.3 32665.7 32617.4 32666C32617.6 32666.4 32617.6 32666.8 32617.6 32667.3H32616.6V32666.9C32616.6 32666.5 32616.5 32666.2 32616.4 32666.1C32616.3 32665.9 32616.1 32665.8 32615.8 32665.8C32615.4 32665.8 32615.2 32665.9 32615 32666.1C32614.9 32666.3 32614.8 32666.6 32614.8 32667C32614.8 32667.4 32614.9 32667.7 32615 32667.9C32615.2 32668.1 32615.4 32668.2 32615.7 32668.2C32615.9 32668.2 32616.1 32668.1 32616.2 32668.1C32616.4 32668 32616.5 32667.8 32616.6 32667.7L32617.6 32668C32617.4 32668.3 32617.2 32668.6 32616.8 32668.8C32616.5 32669 32616.2 32669.1 32615.8 32669.1ZM32614.5 32667.3V32666.6H32617.1V32667.3H32614.5ZM32618.4 32669V32665H32619.3V32666L32619.2 32665.9C32619.3 32665.7 32619.3 32665.6 32619.4 32665.5C32619.5 32665.4 32619.6 32665.3 32619.8 32665.2C32619.9 32665.2 32620 32665.1 32620.1 32665.1C32620.2 32665 32620.3 32665 32620.4 32665C32620.5 32665 32620.7 32665 32620.8 32665V32666C32620.7 32665.9 32620.5 32665.9 32620.4 32665.9C32620.2 32665.9 32620.1 32666 32620 32666C32619.9 32666.1 32619.8 32666.2 32619.7 32666.2C32619.6 32666.3 32619.6 32666.4 32619.5 32666.6C32619.5 32666.7 32619.5 32666.8 32619.5 32667V32669H32618.4Z" fill="white"/>
<path d="M32723.1 32653.1H32757.8C32759.2 32653.1 32760.3 32654.2 32760.3 32655.5V32667.4C32760.3 32668.7 32759.2 32669.8 32757.8 32669.8H32723.1V32653.1Z" fill="#6366F1"/>
<path d="M32723.1 32653.1H32757.8C32759.2 32653.1 32760.3 32654.2 32760.3 32655.5V32667.4C32760.3 32668.7 32759.2 32669.8 32757.8 32669.8H32723.1V32653.1Z" stroke="#6366F1"/>
<path d="M32730.9 32663.6C32730.6 32663.6 32730.4 32663.5 32730.2 32663.4C32729.9 32663.3 32729.8 32663.2 32729.6 32663C32729.5 32662.9 32729.4 32662.7 32729.4 32662.4L32729.9 32662.3C32730 32662.6 32730.1 32662.7 32730.3 32662.9C32730.5 32663 32730.7 32663.1 32730.9 32663.1C32731.1 32663.1 32731.2 32663 32731.3 32663C32731.5 32662.9 32731.6 32662.9 32731.6 32662.8C32731.7 32662.7 32731.8 32662.6 32731.8 32662.5C32731.8 32662.4 32731.8 32662.3 32731.7 32662.3C32731.7 32662.2 32731.7 32662.2 32731.6 32662.1C32731.6 32662.1 32731.5 32662.1 32731.5 32662C32731.4 32662 32731.4 32662 32731.3 32662L32730.3 32661.7C32730.2 32661.6 32730.1 32661.6 32730 32661.6C32729.9 32661.5 32729.9 32661.5 32729.8 32661.4C32729.7 32661.3 32729.6 32661.2 32729.6 32661.1C32729.5 32661 32729.5 32660.9 32729.5 32660.7C32729.5 32660.5 32729.6 32660.3 32729.7 32660.1C32729.8 32660 32730 32659.9 32730.2 32659.8C32730.4 32659.7 32730.6 32659.7 32730.8 32659.7C32731.1 32659.7 32731.3 32659.7 32731.5 32659.8C32731.7 32659.9 32731.9 32660 32732 32660.2C32732.2 32660.3 32732.3 32660.5 32732.3 32660.8L32731.7 32660.9C32731.7 32660.7 32731.6 32660.6 32731.6 32660.5C32731.5 32660.4 32731.4 32660.3 32731.2 32660.3C32731.1 32660.2 32731 32660.2 32730.8 32660.2C32730.7 32660.2 32730.6 32660.2 32730.5 32660.2C32730.3 32660.3 32730.3 32660.3 32730.2 32660.4C32730.1 32660.5 32730.1 32660.6 32730.1 32660.7C32730.1 32660.8 32730.1 32660.9 32730.2 32661C32730.2 32661 32730.3 32661.1 32730.4 32661.1C32730.5 32661.2 32730.6 32661.2 32730.7 32661.2L32731.4 32661.4C32731.4 32661.4 32731.5 32661.5 32731.7 32661.5C32731.8 32661.5 32731.9 32661.6 32732 32661.7C32732.1 32661.7 32732.2 32661.8 32732.2 32662C32732.3 32662.1 32732.3 32662.2 32732.3 32662.4C32732.3 32662.6 32732.3 32662.8 32732.2 32662.9C32732.1 32663.1 32732 32663.2 32731.9 32663.3C32731.8 32663.4 32731.6 32663.4 32731.4 32663.5C32731.3 32663.5 32731.1 32663.6 32730.9 32663.6ZM32734 32663.6C32733.8 32663.6 32733.6 32663.5 32733.5 32663.5C32733.3 32663.4 32733.2 32663.3 32733.1 32663.2C32733.1 32663.1 32733 32663 32733 32662.9C32732.9 32662.8 32732.9 32662.7 32732.9 32662.5C32732.8 32662.4 32732.8 32662.3 32732.8 32662.2V32660.7H32733.4V32662.1C32733.4 32662.2 32733.4 32662.3 32733.4 32662.4C32733.4 32662.5 32733.5 32662.6 32733.5 32662.7C32733.6 32662.8 32733.6 32662.9 32733.7 32663C32733.8 32663 32734 32663.1 32734.1 32663.1C32734.2 32663.1 32734.3 32663 32734.4 32663C32734.5 32663 32734.5 32662.9 32734.6 32662.8C32734.7 32662.8 32734.7 32662.7 32734.8 32662.6C32734.8 32662.4 32734.8 32662.3 32734.8 32662.1L32735.2 32662.3C32735.2 32662.5 32735.1 32662.7 32735 32662.9C32734.9 32663.1 32734.8 32663.3 32734.6 32663.4C32734.4 32663.5 32734.2 32663.6 32734 32663.6ZM32734.9 32663.5V32662.7H32734.8V32660.7H32735.4V32663.5H32734.9ZM32737.4 32663.6C32737.2 32663.6 32736.9 32663.5 32736.8 32663.4C32736.6 32663.2 32736.4 32663.1 32736.3 32662.8C32736.2 32662.6 32736.2 32662.4 32736.2 32662.1C32736.2 32661.8 32736.2 32661.5 32736.3 32661.3C32736.4 32661.1 32736.6 32660.9 32736.7 32660.8C32736.9 32660.7 32737.2 32660.6 32737.4 32660.6C32737.7 32660.6 32737.9 32660.7 32738.1 32660.8C32738.3 32660.9 32738.4 32661.1 32738.6 32661.3C32738.7 32661.5 32738.7 32661.8 32738.7 32662.1C32738.7 32662.4 32738.7 32662.6 32738.6 32662.8C32738.4 32663.1 32738.3 32663.2 32738.1 32663.4C32737.9 32663.5 32737.7 32663.6 32737.4 32663.6ZM32736.1 32663.5V32659.7H32736.7V32661.5H32736.6V32663.5H32736.1ZM32737.4 32663.1C32737.5 32663.1 32737.7 32663 32737.8 32662.9C32737.9 32662.9 32738 32662.7 32738 32662.6C32738.1 32662.4 32738.1 32662.3 32738.1 32662.1C32738.1 32661.9 32738.1 32661.7 32738 32661.6C32738 32661.4 32737.9 32661.3 32737.8 32661.2C32737.7 32661.1 32737.5 32661.1 32737.3 32661.1C32737.2 32661.1 32737 32661.1 32736.9 32661.2C32736.8 32661.3 32736.7 32661.4 32736.7 32661.6C32736.6 32661.7 32736.6 32661.9 32736.6 32662.1C32736.6 32662.3 32736.6 32662.4 32736.7 32662.6C32736.7 32662.7 32736.8 32662.9 32736.9 32662.9C32737 32663 32737.2 32663.1 32737.4 32663.1ZM32740.3 32663.6C32740 32663.6 32739.7 32663.5 32739.5 32663.3C32739.3 32663.2 32739.1 32663 32739.1 32662.7L32739.6 32662.6C32739.7 32662.8 32739.8 32662.9 32739.9 32663C32740 32663 32740.2 32663.1 32740.4 32663.1C32740.5 32663.1 32740.7 32663.1 32740.7 32663C32740.8 32662.9 32740.9 32662.8 32740.9 32662.7C32740.9 32662.6 32740.9 32662.6 32740.8 32662.5C32740.8 32662.5 32740.7 32662.4 32740.6 32662.4C32740.5 32662.4 32740.4 32662.3 32740.1 32662.2C32739.9 32662.2 32739.7 32662.1 32739.6 32662C32739.4 32662 32739.3 32661.9 32739.3 32661.8C32739.2 32661.7 32739.2 32661.6 32739.2 32661.4C32739.2 32661.3 32739.2 32661.1 32739.3 32661C32739.4 32660.9 32739.5 32660.8 32739.7 32660.7C32739.9 32660.6 32740 32660.6 32740.3 32660.6C32740.5 32660.6 32740.7 32660.6 32740.8 32660.7C32741 32660.8 32741.1 32660.9 32741.3 32661C32741.4 32661.1 32741.4 32661.3 32741.4 32661.4L32740.9 32661.5C32740.9 32661.4 32740.8 32661.3 32740.7 32661.2C32740.6 32661.1 32740.4 32661.1 32740.3 32661.1C32740.1 32661.1 32740 32661.1 32739.9 32661.2C32739.8 32661.2 32739.7 32661.3 32739.7 32661.4C32739.7 32661.5 32739.7 32661.5 32739.8 32661.6C32739.8 32661.6 32739.9 32661.7 32740 32661.7C32740.1 32661.7 32740.3 32661.8 32740.5 32661.8C32740.7 32661.9 32740.9 32662 32741.1 32662C32741.2 32662.1 32741.3 32662.2 32741.4 32662.3C32741.4 32662.4 32741.5 32662.5 32741.5 32662.7C32741.5 32663 32741.4 32663.2 32741.2 32663.3C32741 32663.5 32740.7 32663.6 32740.3 32663.6ZM32743.2 32663.6C32743 32663.6 32742.7 32663.5 32742.5 32663.4C32742.3 32663.2 32742.1 32663.1 32742 32662.8C32741.9 32662.6 32741.9 32662.4 32741.9 32662.1C32741.9 32661.8 32741.9 32661.5 32742 32661.3C32742.2 32661.1 32742.3 32660.9 32742.5 32660.8C32742.7 32660.7 32743 32660.6 32743.3 32660.6C32743.6 32660.6 32743.8 32660.7 32744 32660.8C32744.3 32661 32744.4 32661.2 32744.5 32661.5L32743.9 32661.6C32743.9 32661.5 32743.8 32661.3 32743.7 32661.2C32743.5 32661.2 32743.4 32661.1 32743.2 32661.1C32743.1 32661.1 32742.9 32661.1 32742.8 32661.2C32742.7 32661.3 32742.6 32661.4 32742.5 32661.6C32742.5 32661.7 32742.5 32661.9 32742.5 32662.1C32742.5 32662.4 32742.5 32662.6 32742.7 32662.8C32742.8 32663 32743 32663.1 32743.2 32663.1C32743.4 32663.1 32743.6 32663 32743.7 32662.9C32743.8 32662.9 32743.9 32662.7 32743.9 32662.6L32744.5 32662.7C32744.4 32663 32744.2 32663.2 32744 32663.4C32743.8 32663.5 32743.5 32663.6 32743.2 32663.6ZM32745 32663.5V32660.7H32745.5V32661.4L32745.4 32661.3C32745.5 32661.2 32745.5 32661.1 32745.6 32661C32745.6 32660.9 32745.7 32660.9 32745.8 32660.8C32745.8 32660.8 32745.9 32660.7 32746 32660.7C32746.1 32660.7 32746.2 32660.7 32746.3 32660.7C32746.4 32660.7 32746.4 32660.7 32746.5 32660.7V32661.2C32746.4 32661.2 32746.3 32661.2 32746.2 32661.2C32746.1 32661.2 32746 32661.2 32745.9 32661.3C32745.8 32661.3 32745.8 32661.4 32745.7 32661.5C32745.6 32661.6 32745.6 32661.7 32745.6 32661.8C32745.6 32661.9 32745.6 32662 32745.6 32662.1V32663.5H32745ZM32747.1 32660.2V32659.7H32747.6V32660.2H32747.1ZM32747.1 32663.5V32660.7H32747.6V32663.5H32747.1ZM32749.7 32663.6C32749.5 32663.6 32749.2 32663.5 32749.1 32663.4C32748.9 32663.2 32748.7 32663.1 32748.6 32662.8C32748.5 32662.6 32748.5 32662.4 32748.5 32662.1C32748.5 32661.8 32748.5 32661.5 32748.6 32661.3C32748.7 32661.1 32748.9 32660.9 32749 32660.8C32749.2 32660.7 32749.5 32660.6 32749.7 32660.6C32750 32660.6 32750.2 32660.7 32750.4 32660.8C32750.6 32660.9 32750.7 32661.1 32750.9 32661.3C32751 32661.5 32751 32661.8 32751 32662.1C32751 32662.4 32751 32662.6 32750.9 32662.8C32750.8 32663.1 32750.6 32663.2 32750.4 32663.4C32750.2 32663.5 32750 32663.6 32749.7 32663.6ZM32748.4 32663.5V32659.7H32749V32661.5H32748.9V32663.5H32748.4ZM32749.7 32663.1C32749.8 32663.1 32750 32663 32750.1 32662.9C32750.2 32662.9 32750.3 32662.7 32750.3 32662.6C32750.4 32662.4 32750.4 32662.3 32750.4 32662.1C32750.4 32661.9 32750.4 32661.7 32750.3 32661.6C32750.3 32661.4 32750.2 32661.3 32750.1 32661.2C32750 32661.1 32749.8 32661.1 32749.6 32661.1C32749.5 32661.1 32749.3 32661.1 32749.2 32661.2C32749.1 32661.3 32749 32661.4 32749 32661.6C32748.9 32661.7 32748.9 32661.9 32748.9 32662.1C32748.9 32662.3 32748.9 32662.4 32749 32662.6C32749 32662.7 32749.1 32662.9 32749.2 32662.9C32749.3 32663 32749.5 32663.1 32749.7 32663.1ZM32752.8 32663.6C32752.6 32663.6 32752.3 32663.5 32752.1 32663.4C32751.9 32663.3 32751.7 32663.1 32751.6 32662.9C32751.5 32662.7 32751.4 32662.4 32751.4 32662.1C32751.4 32661.8 32751.5 32661.5 32751.6 32661.3C32751.7 32661.1 32751.9 32660.9 32752.1 32660.8C32752.3 32660.7 32752.5 32660.6 32752.8 32660.6C32753.1 32660.6 32753.3 32660.7 32753.5 32660.8C32753.7 32660.9 32753.9 32661.1 32754 32661.4C32754.1 32661.6 32754.1 32661.9 32754.1 32662.2H32753.6V32662C32753.6 32661.7 32753.5 32661.5 32753.4 32661.3C32753.3 32661.2 32753.1 32661.1 32752.8 32661.1C32752.6 32661.1 32752.4 32661.2 32752.2 32661.3C32752.1 32661.5 32752 32661.8 32752 32662.1C32752 32662.4 32752.1 32662.6 32752.2 32662.8C32752.4 32663 32752.6 32663.1 32752.8 32663.1C32753 32663.1 32753.1 32663 32753.3 32662.9C32753.4 32662.9 32753.5 32662.8 32753.5 32662.6L32754.1 32662.8C32754 32663 32753.8 32663.2 32753.6 32663.4C32753.4 32663.5 32753.1 32663.6 32752.8 32663.6ZM32751.8 32662.2V32661.8H32753.8V32662.2H32751.8Z" fill="white"/>
<g clip-path="url(#clip1_20005129_1123)">
<g clip-path="url(#clip2_20005129_1123)">
<g clip-path="url(#clip3_20005129_1123)">
<mask id="mask0_20005129_1123" style="mask-type:luminance" maskUnits="userSpaceOnUse" x="32545" y="32648" width="27" height="26">
<path d="M32545.7 32648.4H32571.2V32673.9H32545.7V32648.4Z" fill="white"/>
</mask>
<g mask="url(#mask0_20005129_1123)">
<path d="M32561.1 32669.6C32561.1 32672 32559.2 32673.9 32556.9 32673.9C32554.5 32673.9 32552.6 32672 32552.6 32669.6C32552.6 32667.3 32554.5 32665.4 32556.9 32665.4C32559.2 32665.4 32561.1 32667.3 32561.1 32669.6Z" fill="#FFBA08"/>
<path opacity="0.3" d="M32561.1 32669.6C32561.1 32672 32559.2 32673.9 32556.9 32673.9C32554.5 32673.9 32552.6 32672 32552.6 32669.6C32552.6 32667.3 32554.5 32665.4 32556.9 32665.4C32559.2 32665.4 32561.1 32667.3 32561.1 32669.6Z" fill="#EF4444"/>
<path d="M32564.3 32661.1C32560.7 32660.5 32557.9 32657.5 32557.9 32653.7C32557.9 32652.7 32558.1 32651.7 32558.5 32650.7C32558 32650.6 32557.4 32650.5 32556.9 32650.5C32552.8 32650.5 32549.4 32653.9 32549.4 32658V32660.9C32549.4 32662 32549.2 32663 32548.8 32663.9C32548.3 32664.9 32547.7 32665.7 32546.9 32666.4C32546.5 32666.7 32546.2 32667.2 32546.2 32667.8C32546.2 32668.8 32547.1 32669.6 32548.1 32669.6H32565.6C32566.6 32669.6 32567.5 32668.8 32567.5 32667.8C32567.5 32667.2 32567.2 32666.7 32566.8 32666.4C32566 32665.7 32565.4 32664.9 32565 32664C32564.5 32663.1 32564.3 32662.1 32564.3 32661.1Z" fill="url(#paint0_linear_20005129_1123)"/>
<path d="M32570.7 32653.7C32570.7 32656.6 32568.3 32659 32565.3 32659C32562.4 32659 32560 32656.6 32560 32653.7C32560 32650.8 32562.4 32648.4 32565.3 32648.4C32568.3 32648.4 32570.7 32650.8 32570.7 32653.7Z" fill="url(#paint1_linear_20005129_1123)"/>
</g>
</g>
</g>
</g>
<defs>
<linearGradient id="paint0_linear_20005129_1123" x1="32544.9" y1="32666" x2="32565.1" y2="32654.6" gradientUnits="userSpaceOnUse">
<stop stop-color="#FFBA08"/>
<stop offset="1" stop-color="#FFDB7E"/>
</linearGradient>
<linearGradient id="paint1_linear_20005129_1123" x1="32559.6" y1="32660.7" x2="32565.3" y2="32647.9" gradientUnits="userSpaceOnUse">
<stop stop-color="#7A1CD0"/>
<stop offset="1" stop-color="#6366F1"/>
</linearGradient>
<clipPath id="clip0_20005129_1123">
<rect width="135.53" height="21.6" fill="white" transform="translate(32672.9 32657.8) scale(0.326531)"/>
</clipPath>
<clipPath id="clip1_20005129_1123">
<rect width="78" height="78" fill="white" transform="translate(32545.7 32648.4) scale(0.326531)"/>
</clipPath>
<clipPath id="clip2_20005129_1123">
<rect width="78" height="78" fill="white" transform="translate(32545.7 32648.4) scale(0.326531)"/>
</clipPath>
<clipPath id="clip3_20005129_1123">
<rect width="78" height="78" fill="white" transform="translate(32545.7 32648.4) scale(0.326531)"/>
</clipPath>
</defs>
</svg>
